<svg version="1.1" xmlns="http://www.w3.org/2000/svg" style="display: block;" viewBox="0 0 2048 2048" width="1024" height="1024" preserveAspectRatio="none">
<path transform="translate(0,0)" fill="rgb(255,255,255)" d="M 0 0 L 2048 0 L 2048 2048 L 0 2048 L 0 0 z"/>
<path transform="translate(0,0)" fill="rgb(246,185,94)" d="M 1014.95 379.749 C 1021.7 384.377 1044.38 407.772 1051.25 414.664 L 1126.7 490.42 L 1422.28 786.731 C 1384.46 826.355 1342.97 866.775 1304.09 905.647 L 1117.08 1093.05 C 1082.54 1127.69 1049.31 1158.4 1015.86 1194.37 C 1015.15 1194.08 946.658 1124.47 940.152 1117.94 C 830.266 1006.97 719.798 896.569 608.752 786.754 C 657.422 734.998 713.611 680.881 764.27 630.318 L 1014.95 379.749 z"/>
<path transform="translate(0,0)" fill="rgb(246,185,94)" d="M 575.924 818.626 C 579.489 820.614 604.032 845.648 608.371 849.989 L 676.286 917.864 C 778.14 1019.68 883.288 1122.64 983.625 1225.59 C 968.637 1241.58 950.115 1259.18 934.458 1274.78 L 850.263 1359 L 577.149 1632.35 C 573.008 1629.73 551.373 1607.38 546.673 1602.64 L 476.751 1532.35 L 169.846 1225.54 C 185.593 1207.98 207.316 1187.17 224.438 1170.04 L 315.592 1079.03 L 575.924 818.626 z"/>
<path transform="translate(0,0)" fill="rgb(246,185,94)" d="M 1449.44 818.085 C 1457.35 823.869 1487.84 855.411 1496.43 864.028 C 1530.37 898.52 1564.51 932.825 1598.84 966.939 L 1766.65 1134.72 C 1794.45 1162.43 1830.78 1196.64 1856.86 1225.35 C 1810.23 1273.9 1759.02 1323.32 1711.3 1371.12 L 1450.01 1632.4 C 1435.12 1615.85 1415.37 1597.08 1399.33 1581.08 L 1316.83 1498.53 L 1042.78 1225.28 L 1336.55 931.177 C 1373.77 893.964 1413.1 855.91 1449.44 818.085 z"/>
</svg>