<svg xmlns="http://www.w3.org/2000/svg" xmlns:xlink="http://www.w3.org/1999/xlink" width="399" zoomAndPan="magnify" viewBox="0 0 299.25 221.999995" height="296" preserveAspectRatio="xMidYMid meet" version="1.0"><defs><clipPath id="860d3c4412"><path d="M 77.433594 0.277344 L 221.078125 0.277344 L 221.078125 143.921875 L 77.433594 143.921875 Z M 77.433594 0.277344 " clip-rule="nonzero"/></clipPath><clipPath id="501cf8711b"><path d="M 149.253906 0.277344 L 221.078125 72.101562 L 149.253906 143.921875 L 77.433594 72.101562 Z M 149.253906 0.277344 " clip-rule="nonzero"/></clipPath><clipPath id="1d52d90dea"><path d="M 0.433594 0.277344 L 144.078125 0.277344 L 144.078125 143.921875 L 0.433594 143.921875 Z M 0.433594 0.277344 " clip-rule="nonzero"/></clipPath><clipPath id="6ca89bab86"><path d="M 72.253906 0.277344 L 144.078125 72.101562 L 72.253906 143.921875 L 0.433594 72.101562 Z M 72.253906 0.277344 " clip-rule="nonzero"/></clipPath><clipPath id="f9a254bce4"><rect x="0" width="145" y="0" height="144"/></clipPath><clipPath id="42f40389da"><path d="M 154.117188 77.710938 L 297.761719 77.710938 L 297.761719 221.355469 L 154.117188 221.355469 Z M 154.117188 77.710938 " clip-rule="nonzero"/></clipPath><clipPath id="93af41d046"><path d="M 225.941406 77.710938 L 297.761719 149.535156 L 225.941406 221.355469 L 154.117188 149.535156 Z M 225.941406 77.710938 " clip-rule="nonzero"/></clipPath><clipPath id="4e1ac80a65"><path d="M 0.117188 0.710938 L 143.761719 0.710938 L 143.761719 144.355469 L 0.117188 144.355469 Z M 0.117188 0.710938 " clip-rule="nonzero"/></clipPath><clipPath id="f896ff395b"><path d="M 71.941406 0.710938 L 143.761719 72.535156 L 71.941406 144.355469 L 0.117188 72.535156 Z M 71.941406 0.710938 " clip-rule="nonzero"/></clipPath><clipPath id="956a59b2cb"><rect x="0" width="144" y="0" height="145"/></clipPath><clipPath id="7a0d57e5f5"><path d="M 0 77.710938 L 143.644531 77.710938 L 143.644531 221.355469 L 0 221.355469 Z M 0 77.710938 " clip-rule="nonzero"/></clipPath><clipPath id="1d8c85eddb"><path d="M 71.824219 77.710938 L 143.644531 149.535156 L 71.824219 221.355469 L 0 149.535156 Z M 71.824219 77.710938 " clip-rule="nonzero"/></clipPath><clipPath id="274f38801e"><path d="M 0 0.710938 L 143.644531 0.710938 L 143.644531 144.355469 L 0 144.355469 Z M 0 0.710938 " clip-rule="nonzero"/></clipPath><clipPath id="61996ac6e0"><path d="M 71.824219 0.710938 L 143.644531 72.535156 L 71.824219 144.355469 L 0 72.535156 Z M 71.824219 0.710938 " clip-rule="nonzero"/></clipPath><clipPath id="aa3042cbf4"><rect x="0" width="144" y="0" height="145"/></clipPath></defs><g clip-path="url(#860d3c4412)"><g clip-path="url(#501cf8711b)"><g transform="matrix(1, 0, 0, 1, 77, 0.000000000000025646)"><g clip-path="url(#f9a254bce4)"><g clip-path="url(#1d52d90dea)"><g clip-path="url(#6ca89bab86)"><path fill="#ffbd59" d="M 0.433594 0.277344 L 144.078125 0.277344 L 144.078125 143.921875 L 0.433594 143.921875 Z M 0.433594 0.277344 " fill-opacity="1" fill-rule="nonzero"/></g></g></g></g></g></g><g clip-path="url(#42f40389da)"><g clip-path="url(#93af41d046)"><g transform="matrix(1, 0, 0, 1, 154, 77)"><g clip-path="url(#956a59b2cb)"><g clip-path="url(#4e1ac80a65)"><g clip-path="url(#f896ff395b)"><path fill="#ffbd59" d="M 0.117188 0.710938 L 143.761719 0.710938 L 143.761719 144.355469 L 0.117188 144.355469 Z M 0.117188 0.710938 " fill-opacity="1" fill-rule="nonzero"/></g></g></g></g></g></g><g clip-path="url(#7a0d57e5f5)"><g clip-path="url(#1d8c85eddb)"><g transform="matrix(1, 0, 0, 1, 0, 77)"><g clip-path="url(#aa3042cbf4)"><g clip-path="url(#274f38801e)"><g clip-path="url(#61996ac6e0)"><path fill="#ffbd59" d="M 0 0.710938 L 143.644531 0.710938 L 143.644531 144.355469 L 0 144.355469 Z M 0 0.710938 " fill-opacity="1" fill-rule="nonzero"/></g></g></g></g></g></g></svg>